<?xml version="1.0" encoding="UTF-8"?><svg xmlns="http://www.w3.org/2000/svg" viewBox="0 0 196.86 145.51"><defs><style>.d{fill:#fff;fill-rule:evenodd;}</style></defs><g id="a"/><g id="b"><g id="c"><g><path class="d" d="M84.6,123.76l-1.35-.34c-1.41-.02-7.4,.79-12.95,.68-4.58-.09-9.37-.64-13.67-1.56-8.8-1.87-15.64-4.98-21.76-9.21-11.57-7.98-20.73-23.45-13.95-43.41C34.71,29.28,97.35-.73,140.97,6.88c49.18,8.58,44.96,51.95,15.02,79.22-5.53,5.04-10.82,9.55-17.3,13.63-2.2,1.39-7.53,4.9-9.83,5.61l31.06-74.48c-14.21,2.03-24.42,8.15-30,16.6-3.59,5.44-11.22,24.96-14.27,32.28-.82,1.98-26.84,63.58-27.38,65.77,33.85-4.26,34.07-31.43,38.56-33.86,2.07-1.12,4.99-2.23,7.21-3.32,9.48-4.64,18.41-9.85,25.94-15.52,9.35-7.05,14.1-11.35,21.59-19.86,5.59-6.35,12.03-16.27,14.42-27.01,1.35-6.07,1.14-12.97-.88-18.45-5.65-15.32-21.39-22.61-36.61-25.6-12.55-2.46-26.13-2.32-38.95-.75-23.93,2.94-44.09,10.78-62.69,20.16C39.18,30.24,20.67,45.38,11.21,58.89c-14.31,20.44-16.82,42.38,3.73,56.69,17.26,12.02,46.71,12.8,67.9,9.14,1.65-.28,1.21,.08,1.76-.96h0Z"/><path class="d" d="M39.05,103.72c19.84-2.86,27.9-10.8,35.43-27.78,.8-1.8,17.87-43.2,18.16-44.84-8.59,1.58-16.7,4.93-22.15,9.26-6.04,4.8-9.5,9.85-13.1,18.51l-13.78,33.45c-1.28,3.13-3.89,8.48-4.57,11.4h0Z"/><path class="d" d="M72.46,103.47c9.18-1.18,17.22-4.35,22.67-8.91,6.26-5.24,8.65-9.49,12.74-18.86,3.16-7.23,6.11-14.82,9.05-22.22l9.18-22.55c-8.12,1.01-16.96,5.23-22.18,9.21-5.61,4.28-9.8,10.18-13.12,18.49-1.8,4.5-17.54,41.8-18.35,44.84Z"/></g></g></g></svg>