<svg xmlns="http://www.w3.org/2000/svg" width="64.752" height="53.117" viewBox="0 0 64.752 53.117">
  <g id="academic" transform="translate(0 -46)">
    <path id="Path_24067" data-name="Path 24067" d="M87.911,347.9v7.588l-26.306,1.9H57.432L31,355.485V347.9a1.9,1.9,0,0,1,1.9-1.9h18.97a9.477,9.477,0,0,1,7.588,3.8,9.477,9.477,0,0,1,7.588-3.8h18.97A1.9,1.9,0,0,1,87.911,347.9Z" transform="translate(-27.079 -262.059)" fill="#fff7cc"/>
    <path id="Path_24068" data-name="Path 24068" d="M284.456,347.9v7.588l-26.306,1.9H256V349.8a9.477,9.477,0,0,1,7.588-3.8h18.97A1.9,1.9,0,0,1,284.456,347.9Z" transform="translate(-223.624 -262.059)" fill="#ffe6b3"/>
    <g id="Group_19856" data-name="Group 19856" transform="translate(0 91.529)">
      <g id="Group_19855" data-name="Group 19855">
        <g id="Group_19854" data-name="Group 19854">
          <path id="Path_24069" data-name="Path 24069" d="M64.752,407.9a1.9,1.9,0,0,1-1.9,1.9H44.923c-3.86,0-6.884.856-8.987,2.543a5.692,5.692,0,0,1-7.12,0c-2.1-1.687-5.127-2.543-8.987-2.543H1.9A1.9,1.9,0,0,1,1.9,406H19.829c4.745,0,8.568,1.137,11.361,3.378a1.9,1.9,0,0,0,2.371,0C36.355,407.137,40.178,406,44.923,406H62.855A1.9,1.9,0,0,1,64.752,407.9Z" transform="translate(0 -406)" fill="#613d5c"/>
        </g>
      </g>
    </g>
    <path id="Path_24070" data-name="Path 24070" d="M288.376,407.9a1.9,1.9,0,0,1-1.9,1.9H268.547c-3.86,0-6.884.856-8.987,2.543a5.705,5.705,0,0,1-3.56,1.251v-3.794a1.872,1.872,0,0,0,1.185-.416c2.794-2.241,6.617-3.378,11.362-3.378h17.932A1.9,1.9,0,0,1,288.376,407.9Z" transform="translate(-223.624 -314.471)" fill="#4b2746"/>
    <path id="Path_24071" data-name="Path 24071" d="M177.559,142.187v10.84a1.9,1.9,0,0,1-1.048,1.7l-8.39,4.194a10.385,10.385,0,0,0-2.529,1.781,1.9,1.9,0,0,1-2.623,0,10.385,10.385,0,0,0-2.529-1.781l-8.39-4.194a1.9,1.9,0,0,1-1.048-1.7v-10.84a1.9,1.9,0,0,1,1.9-1.9h22.764A1.9,1.9,0,0,1,177.559,142.187Z" transform="translate(-131.903 -82.365)" fill="#4b2746"/>
    <path id="Path_24072" data-name="Path 24072" d="M269.279,142.187v10.84a1.9,1.9,0,0,1-1.048,1.7l-8.39,4.194a10.386,10.386,0,0,0-2.529,1.781,1.893,1.893,0,0,1-1.311.526V140.29h11.382A1.9,1.9,0,0,1,269.279,142.187Z" transform="translate(-223.624 -82.365)" fill="#351b33"/>
    <g id="Group_19857" data-name="Group 19857" transform="translate(49.449 55.756)">
      <path id="Path_24073" data-name="Path 24073" d="M392.9,143.739a1.9,1.9,0,0,1-1.9-1.9v-16.8a1.9,1.9,0,0,1,3.794,0v16.8A1.9,1.9,0,0,1,392.9,143.739Z" transform="translate(-391 -123.143)" fill="#ffd400"/>
    </g>
    <g id="Group_19861" data-name="Group 19861" transform="translate(3.925 46)">
      <g id="Group_19860" data-name="Group 19860">
        <g id="Group_19859" data-name="Group 19859">
          <g id="Group_19858" data-name="Group 19858">
            <path id="Path_24074" data-name="Path 24074" d="M86.566,53.661,60.007,46.073a1.887,1.887,0,0,0-1.042,0L32.407,53.661a1.9,1.9,0,0,0,0,3.647L58.965,64.9a1.879,1.879,0,0,0,.521.073,1.859,1.859,0,0,0,.521-.073l26.558-7.588A1.9,1.9,0,0,0,86.566,53.661Z" transform="translate(-31.035 -46)" fill="#613d5c"/>
          </g>
        </g>
      </g>
    </g>
    <path id="Path_24075" data-name="Path 24075" d="M283.08,57.309,256.521,64.9a1.859,1.859,0,0,1-.521.073V46a1.913,1.913,0,0,1,.521.073l26.558,7.588A1.9,1.9,0,0,1,283.08,57.309Z" transform="translate(-223.624 0)" fill="#4b2746"/>
  </g>
</svg>
