<svg id="surface1" xmlns="http://www.w3.org/2000/svg" width="27.39" height="32.164" viewBox="0 0 27.39 32.164">
  <path id="Path_3" data-name="Path 3" d="M.032,8.726V8.7c.014-.309.023-.636.029-1a3.409,3.409,0,0,1,3.21-3.34,13.228,13.228,0,0,0,9-3.795L12.3.547a2.058,2.058,0,0,1,2.8,0l.021.02a13.229,13.229,0,0,0,9,3.8,3.409,3.409,0,0,1,3.21,3.34c.005.361.015.688.029,1v.058c.072,3.771.161,8.464-1.409,12.724a16.2,16.2,0,0,1-3.886,6.053,20.327,20.327,0,0,1-7.6,4.5,2.355,2.355,0,0,1-.312.085,2.3,2.3,0,0,1-.905,0,2.362,2.362,0,0,1-.313-.085,20.341,20.341,0,0,1-7.6-4.5,16.22,16.22,0,0,1-3.886-6.054C-.129,17.206-.04,12.5.032,8.726Zm3.186,12.1c1.656,4.49,5.036,7.573,10.334,9.426a.474.474,0,0,0,.06.016.424.424,0,0,0,.166,0,.47.47,0,0,0,.059-.016c5.3-1.849,8.686-4.931,10.341-9.421C25.625,16.9,25.543,12.6,25.471,8.8V8.774c-.015-.327-.025-.669-.03-1.045a1.515,1.515,0,0,0-1.428-1.483A16.559,16.559,0,0,1,18.392,5.01a14.7,14.7,0,0,1-4.58-3.077.174.174,0,0,0-.234,0A14.71,14.71,0,0,1,9,5.01,16.56,16.56,0,0,1,3.377,6.247,1.515,1.515,0,0,0,1.949,7.73c-.006.378-.015.72-.03,1.044C1.847,12.579,1.767,16.891,3.218,20.826Zm0,0" transform="translate(0 0.001)" fill="#0053a6"/>
  <path id="Path_4" data-name="Path 4" d="M98.414,128.41a8.016,8.016,0,1,1-8.016,8.016A8.025,8.025,0,0,1,98.414,128.41Zm0,14.144a6.129,6.129,0,1,0-6.128-6.129A6.135,6.135,0,0,0,98.414,142.554Zm0,0" transform="translate(-84.719 -120.343)" fill="#0053a6"/>
  <path id="Path_5" data-name="Path 5" d="M155.284,212.268l3.723,3.723,1.011-1.011a.944.944,0,0,1,1.335,1.334l-1.678,1.678a.944.944,0,0,1-1.334,0l-4.391-4.391a.944.944,0,0,1,1.335-1.334Zm0,0" transform="translate(-143.892 -198.673)" fill="#0053a6"/>
</svg>
