<svg xmlns="http://www.w3.org/2000/svg" width="143.451" height="45.938" viewBox="0 0 143.451 45.938">
  <path id="path2" d="M126.551,66.987c-3.737.674-5.525,1.8-6.677,4.217a5.688,5.688,0,0,1-2.626,2.5c-.744.329-1.146.638-.517.4.18-.069.468.095.794.453.433.474.462.561.187.561a.845.845,0,0,0-.561.284c-.166.2-.463.265-1.011.222-1.056-.084-.529.322.645.5,2.236.334,5.715,2.974,8.1,6.15,1.3,1.728,3.9,4.216,3.785,3.626-.135-.726.035-1.225.34-1a5.033,5.033,0,0,0,.758.393l.536.229-.447-.475a38.391,38.391,0,0,1-5.125-8.406,9.8,9.8,0,0,1-.082-4.058c.645-1.683,4.8-2.286,6.316-.916.729.66.145,1.687-1.154,2.034-.952.254-1.385.633-1.385,1.213,0,1.367,2.219,3.955,4.179,4.872l1.189.557,3.8-.078a52.7,52.7,0,0,0,6.012-.41c2.019-.3,2.305-.308,3.244-.064.774.2,1.008.214.945.049-.13-.34.6-.963,1.132-.963.583,0-.108-.781-3.778-4.268a29.141,29.141,0,0,0-10.277-6.627,19.917,19.917,0,0,0-8.32-.991m2.593,7.863c0,.148-.08.268-.179.268s-.179-.12-.179-.268.08-.268.179-.268.179.121.179.268m.823.358c-.341.259-.644.212-.644-.1,0-.092.221-.166.492-.162.466.005.474.019.153.262m17.1,3.263c.126.159.094.223-.113.223s-.286-.152-.276-.492c.008-.28.057-.376.113-.223a2.183,2.183,0,0,0,.276.492m32.138.865c-.344.038-1.913.2-3.487.351s-3.384.392-4.023.527-1.525.3-1.967.361c-1.308.187-4.25.78-6.169,1.242-.983.237-2.23.523-2.771.636-.923.192-1.791.441-4.964,1.423-.714.221-2.76.873-3.35,1.067s-1.838.59-2.772.881-2.1.693-2.593.894-6.846,2.29-7.127,2.437a2.433,2.433,0,0,1-.7.267c-.29,0-4.143,1.213-5.667,1.785-.738.276-1.975.674-2.749.884a18.4,18.4,0,0,0-2.146.716,18.544,18.544,0,0,1-3.688,1.083c-.836.207-1.922.5-2.414.646-1.828.55-8.571,1.9-11.443,2.294-10.492,1.432-18.652.649-29.73-2.855-.9-.285-.842,0,.079.389.7.293.913.668.595,1.052-.335.4-1.268.319-2-.181-.838-.57-1.034-.57-.5,0a11.549,11.549,0,0,0,3.069,1.7,3.651,3.651,0,0,1,.925.5,8.4,8.4,0,0,0,1.373.744c.938.359,4.014,1.757,6.345,2.884a5.934,5.934,0,0,0,1.346.517,1.392,1.392,0,0,1,.629.243,21.155,21.155,0,0,0,3.75,1.277c.492.144,1.578.47,2.414.726,1.455.446,4.331,1.133,7.778,1.859.885.187,2.454.431,3.486.545s2.742.327,3.8.474a80.367,80.367,0,0,0,13.612-.014,18.578,18.578,0,0,1,2.592-.279,126.455,126.455,0,0,0,15.308-2.685c.688-.191,38.96-10.916,39.593-11.109a81.791,81.791,0,0,1,9.04-1.673,66.976,66.976,0,0,1,16.807-.091c4.764.762,7.007,1.267,8.476,1.908,1.178.514,2.722.788,1.984.352-.246-.145-.413-.331-.371-.412a1.808,1.808,0,0,1,.913-.742c.469-.173-.072-.644-1.883-1.639-.59-.324-1.286-.739-1.547-.922a2.224,2.224,0,0,0-.593-.332,4.551,4.551,0,0,1-.866-.507c-.411-.279-1.472-.872-2.357-1.317s-1.851-.938-2.146-1.094a70.769,70.769,0,0,0-9.387-3.784,13.28,13.28,0,0,1-1.58-.468,34.922,34.922,0,0,0-5.75-1.325,6.645,6.645,0,0,1-1.446-.278c-1.12-.588-12.7-1.293-15.718-.956M126.18,81.974c-.266.695-.969.156-.969-.744v-.611l.542.53c.355.347.5.632.428.826m93.844,9.256c-.141.141-.346.145-.706.014-.5-.182-.5-.185.2-.2.518-.011.653.039.507.185m-18.557,7.662a64.567,64.567,0,0,0-9.111,1.966,12.286,12.286,0,0,1-1.885.63c-.934.262-2.744.821-4.023,1.244s-3.29,1.072-4.47,1.443-2.588.831-3.129,1.022a38.2,38.2,0,0,1-14.273,2.642,32.336,32.336,0,0,1-7.042-.737c-.176-.094-.319-.1-.319-.017s.2.263.447.394c.67.359.321,1.048-.413.815a1.333,1.333,0,0,0-.733.038c-.567.21,3.072,1.869,5.884,2.682a27.718,27.718,0,0,0,5.9,1.292c1.033.1,2.534.273,3.336.378,2.9.38,9.938-.247,14.276-1.273l3.039-.716c1.571-.369,2.249-.567,7.6-2.212,1.426-.438,2.955-.852,3.4-.919a14.166,14.166,0,0,0,2.146-.618c5.094-1.883,12.417-2.777,17.136-2.09,1.973.287,2.329.226,3.447-.723.352-.3-.409-.8-.5-.944a12.276,12.276,0,0,1-1.895-.778,44.172,44.172,0,0,0-8.917-3.133,44.8,44.8,0,0,0-9.9-.386m19,4.777a1.954,1.954,0,0,1-.716,0c-.222-.042-.082-.079.311-.081s.575.033.4.077" transform="translate(-79.318 -66.859)" fill="#f15922" fill-rule="evenodd"/>
</svg>
