<svg xmlns="http://www.w3.org/2000/svg" width="24.844" height="20.298" viewBox="0 0 24.844 20.298">
  <path id="mail-inbox-app" d="M2.841,48H21.4a2.844,2.844,0,0,1,2.841,2.841v2.344L13.818,60.94a2.824,2.824,0,0,1-3.391,0L0,53.185V50.841A2.844,2.844,0,0,1,2.841,48Zm-.947,4.233,9.663,7.187a.941.941,0,0,0,1.13,0l9.663-7.187V50.841a.948.948,0,0,0-.947-.947H2.841a.948.948,0,0,0-.947.947Zm0,4.721L0,55.545v9.312A2.844,2.844,0,0,0,2.841,67.7H21.4a2.844,2.844,0,0,0,2.841-2.841V55.545L22.35,56.954v7.9a.948.948,0,0,1-.947.947H2.841a.948.948,0,0,1-.947-.947Z" transform="translate(0.3 -47.7)" fill="#86a6c3" stroke="#86a6c3" stroke-width="0.6"/>
</svg>
