<svg xmlns="http://www.w3.org/2000/svg" width="49.796" height="70.763" viewBox="0 0 49.796 70.763">
  <g id="Group_19902" data-name="Group 19902" transform="translate(-81.539 -374.362)">
    <g id="Group_19853" data-name="Group 19853" transform="translate(-497.257 -5501.638)">
      <g id="Group_19834" data-name="Group 19834" transform="translate(578.795 5876)">
        <path id="Path_24046" data-name="Path 24046" d="M163.931,94.763h41.934a3.931,3.931,0,0,0,3.931-3.931V38.415L195.382,24h-31.45A3.931,3.931,0,0,0,160,27.931v62.9A3.931,3.931,0,0,0,163.931,94.763Z" transform="translate(-160 -24)" fill="#ffcd06"/>
      </g>
      <path id="Path_24047" data-name="Path 24047" d="M226.853,208H187.977a1.31,1.31,0,0,0-1.31,1.31V241.2a1.31,1.31,0,0,0,1.31,1.31h38.876a1.31,1.31,0,0,0,1.31-1.31V209.31A1.311,1.311,0,0,0,226.853,208Zm-1.31,10.483H216.37v-7.863h9.173Zm0,10.92H216.37v-8.3h9.173Zm-36.255-8.3h24.461v8.3H189.288Zm24.461-10.483v7.863H189.288v-7.863Zm-24.461,21.4h24.461v7.863H189.288Zm27.082,7.863v-7.863h9.173v7.863Z" transform="translate(396.497 5698.182)" fill="#faa51e"/>
      <g id="Group_19835" data-name="Group 19835" transform="translate(614.177 5876)">
        <path id="Path_24048" data-name="Path 24048" d="M390.415,38.415H379.931A3.931,3.931,0,0,1,376,34.483V24Z" transform="translate(-376 -24)" fill="#faa51e"/>
      </g>
    </g>
    <path id="Path_24112" data-name="Path 24112" d="M4.451-10v2.933H9.188v2.557H4.451V-1.4H9.783V1.318H1.062V-12.7H9.783V-10Zm6.886.476V-12.7h5.669V1.318H13.438V-9.524Zm18.6-.535h-6.3v2.834a2.732,2.732,0,0,1,1.159-.743,4.736,4.736,0,0,1,1.615-.268,4.21,4.21,0,0,1,2.359.624,3.743,3.743,0,0,1,1.407,1.675,5.764,5.764,0,0,1,.456,2.319A5.023,5.023,0,0,1,29.342.02a4.8,4.8,0,0,1-3.627,1.338A6.272,6.272,0,0,1,22.96.793a4.253,4.253,0,0,1-1.8-1.576,4.572,4.572,0,0,1-.674-2.339h3.31a1.888,1.888,0,0,0,.545,1.11,1.669,1.669,0,0,0,1.219.436,1.588,1.588,0,0,0,1.338-.575,2.423,2.423,0,0,0,.446-1.526,1.951,1.951,0,0,0-.476-1.407,1.754,1.754,0,0,0-1.328-.5,1.941,1.941,0,0,0-1.09.287,1.447,1.447,0,0,0-.595.743h-3.29v-8.483h9.375Z" transform="translate(84.642 397.339)" fill="#faa51e"/>
  </g>
</svg>
