<svg id="Group" xmlns="http://www.w3.org/2000/svg" width="23.265" height="26.663" viewBox="0 0 23.265 26.663">
  <path id="Compound_Path" data-name="Compound Path" d="M25.24,12.476a3.8,3.8,0,0,1,5.385,0l7.732,7.732a4.108,4.108,0,0,1,1.208,2.934v10.39a4.487,4.487,0,0,1-4.487,4.487H20.787A4.487,4.487,0,0,1,16.3,33.532V23.142a4.108,4.108,0,0,1,1.208-2.934Zm11.149,9.665-7.732-7.732a1.036,1.036,0,0,0-1.45,0l-7.732,7.732a1.381,1.381,0,0,0-.414.966v6.869H36.8V23.142A1.381,1.381,0,0,0,36.389,22.141Zm-15.6,13.117h14.29A1.726,1.726,0,0,0,36.8,33.532v-.794H19.061v.794a1.726,1.726,0,0,0,1.726,1.726Z" transform="translate(-16.3 -11.356)" fill="#86a6c4"/>
</svg>
