<svg xmlns="http://www.w3.org/2000/svg" width="24.844" height="24.844" viewBox="0 0 24.844 24.844">
  <g id="add_2_" data-name="add (2)" transform="translate(0.3 0.3)">
    <g id="Group_2651" data-name="Group 2651">
      <g id="Group_2650" data-name="Group 2650">
        <path id="Path_25" data-name="Path 25" d="M12.122,0A12.122,12.122,0,1,1,0,12.122,12.135,12.135,0,0,1,12.122,0Zm0,22.366A10.244,10.244,0,1,0,1.878,12.122,10.256,10.256,0,0,0,12.122,22.366Z" fill="#86a6c3" stroke="#86a6c3" stroke-width="0.6"/>
      </g>
    </g>
    <g id="Group_2653" data-name="Group 2653" transform="translate(6.488 6.404)">
      <g id="Group_2652" data-name="Group 2652">
        <path id="Path_26" data-name="Path 26" d="M137.961,139.933h3.756v-3.756a.939.939,0,1,1,1.878,0v3.756h3.756a.939.939,0,1,1,0,1.878h-3.756v3.756a.939.939,0,0,1-1.878,0v-3.756h-3.756a.939.939,0,0,1,0-1.878Z" transform="translate(-137.022 -135.238)" fill="#86a6c3" stroke="#86a6c3" stroke-width="0.6"/>
      </g>
    </g>
  </g>
</svg>
