<svg xmlns="http://www.w3.org/2000/svg" width="132.637" height="48.508" viewBox="0 0 132.637 48.508">
  <g id="Group_20180" data-name="Group 20180" transform="translate(-29.52 -10.712)">
    <path id="Path_24304" data-name="Path 24304" d="M-1.171,0,32.5.465l-12.2,38.23-21.479.853S-3.146,22.157-3.146,12.27-1.171,0-1.171,0Z" transform="translate(85.933 16.534)" fill="#fcc404"/>
    <path id="Path_24305" data-name="Path 24305" d="M9.054,23.116l14.035.6-2.541,7.826-11.993.407s-11.7-4.474-11.7-14.361S9.054,23.116,9.054,23.116Z" transform="translate(77.772 25.03)" fill="#05648c"/>
    <path id="Union_2" data-name="Union 2" d="M0,48.508V3.311L55.081,1.255V7.994s-1.454,3.631-1.454,5.02c-1.982,13.477-2.78,35.494-2.78,35.494ZM77.806,43.4l6.606-20.743,2.642-9.116s1.373-1.654,1.246-2.518a24.769,24.769,0,0,1,.827-4.4L87.885,0l44.752,8.919L114.007,44.856Z" transform="translate(29.52 10.712)" fill="#05648c"/>
    <path id="path1" d="M116.744,171.508c-.049.173-9.16,34.164-9.258,34.84-.046.322.655.387,4.809.445,5.164.072,5.557-.005,5.557-1.092,0-.322,5.775-20.434,5.775-20.652,0-.261.085-.311.249-.148s.273,4.349.379,21.823l3.7.07,3.7.069.587-.948c.323-.522,10.519-19.748,10.726-20.116l.375-.669.075.631c.075.625-5.22,20.481-5.22,20.847,0,.164,1.7.229,4.81.185l4.81-.068.32-1c.318-1,8.6-31.847,8.915-32.911.511-1.729,1.031-1.615-7.311-1.615H142.2l-3.035,6.215c-6.929,14.188-6.9,14.136-7.333,13.7-.091-.091-.165-4.609-.165-10.042v-9.876h-7.416c-5.718,0-7.435.071-7.5.314m76.548.372c-.083.383-.213.865-.286,1.072s-.221.716-.328,1.13-.388,1.431-.623,2.26-.524,1.9-.641,2.385-.382,1.5-.588,2.26-.657,2.454-1,3.766-.817,3.063-1.05,3.892-.515,1.9-.628,2.385c-.255,1.094-.367,1.5-1.884,6.905-.233.829-.475,1.789-.537,2.134a6.44,6.44,0,0,1-.328,1.13,6.443,6.443,0,0,0-.328,1.13c-.063.345-.306,1.306-.542,2.134s-.446,1.676-.47,1.883c-.036.321.667.387,4.762.444l4.8.068.406-1.015a5.638,5.638,0,0,0,.406-1.5,3.594,3.594,0,0,1,.222-1.062c.212-.55.748-2.434,1.306-4.594.142-.552.413-1.569.6-2.26s.47-1.764.628-2.385c.947-3.725,1.808-6.336,2.014-6.106a20.673,20.673,0,0,1,1.254,3.846c.156.622.437,1.695.624,2.385s.477,1.764.642,2.385.449,1.638.631,2.26.464,1.638.628,2.26c.335,1.272.881,3.148,1.351,4.645l.316,1,4.748.062c5.822.076,5.365.369,6.369-4.08.124-.552.526-2.078.893-3.39.81-2.9,1.335-4.858,1.618-6.026.117-.483.406-1.557.641-2.385.787-2.77,1.557-5.613,1.87-6.905.117-.483.407-1.557.643-2.385s.519-1.9.628-2.385.39-1.557.625-2.385a41.62,41.62,0,0,0,1.372-5.336c.005-.24-1.136-.314-4.885-.314h-4.892l-.139.69c-.077.38-.291,1.2-.478,1.82s-.454,1.582-.6,2.134-.44,1.682-.664,2.511-.508,1.9-.633,2.385-.409,1.557-.633,2.385-.507,1.9-.63,2.385a18.871,18.871,0,0,1-1.287,4.016c-.283,0-1.558-4.219-2.237-7.406-.117-.552-.4-1.682-.627-2.511s-.51-1.959-.628-2.511-.4-1.682-.628-2.511-.491-1.9-.585-2.385l-.171-.879-5.451-.068-5.451-.068-.153.7" transform="translate(-73.643 -153.656)" fill="#f8fafa" fill-rule="evenodd"/>
    <path id="path4" d="M193.051,221.071a24.924,24.924,0,0,0-1.431,4.751h10.955c.478-1.654.743-3.807,1.085-5.022l-5.085.008a32.06,32.06,0,0,0-5.524.264" transform="translate(-104.963 -172.126)" fill="#d9362f" fill-rule="evenodd"/>
  </g>
</svg>
