<svg xmlns="http://www.w3.org/2000/svg" width="24.169" height="23.881" viewBox="0 0 24.169 23.881">
  <path id="Icon_ionic-ios-cog" data-name="Icon ionic-ios-cog" d="M3.8,14.68l1.516-.244a.462.462,0,0,0,.383-.395c.029-.186.058-.372.1-.552a.468.468,0,0,0-.226-.5l-1.341-.743A.466.466,0,0,1,4,11.672l.232-.639a.461.461,0,0,1,.546-.29l1.5.29a.467.467,0,0,0,.5-.238q.131-.244.279-.488a.472.472,0,0,0-.041-.552l-1-1.156A.462.462,0,0,1,6,7.985l.436-.523a.458.458,0,0,1,.61-.087l1.318.79a.464.464,0,0,0,.546-.052c.139-.122.285-.244.43-.36a.463.463,0,0,0,.145-.528L8.938,5.79A.465.465,0,0,1,9.13,5.2l.592-.343a.463.463,0,0,1,.6.128L11.29,6.2a.415.415,0,0,0,.494.145s.325-.134.569-.215a.462.462,0,0,0,.319-.447l-.023-1.533a.468.468,0,0,1,.383-.488l.674-.116a.469.469,0,0,1,.528.325l.5,1.452a.464.464,0,0,0,.453.314c.093,0,.192-.006.285-.006s.192,0,.285.006a.469.469,0,0,0,.453-.314l.5-1.452a.469.469,0,0,1,.528-.325l.674.116a.468.468,0,0,1,.383.488L18.27,5.679a.465.465,0,0,0,.319.447c.134.052.424.163.563.215a.463.463,0,0,0,.511-.168l.958-1.179a.463.463,0,0,1,.6-.128l.592.343a.459.459,0,0,1,.192.587L21.464,7.23a.467.467,0,0,0,.145.528c.145.116.29.238.43.36a.464.464,0,0,0,.546.052l1.3-.8a.465.465,0,0,1,.61.087l.436.523a.462.462,0,0,1-.017.616l-1,1.156a.462.462,0,0,0-.041.552q.148.235.279.488a.472.472,0,0,0,.5.238l1.5-.29a.467.467,0,0,1,.546.29l.232.639a.466.466,0,0,1-.226.575l-1.341.743a.46.46,0,0,0-.226.5c.035.186.07.366.1.552a.469.469,0,0,0,.383.395l1.516.244a.469.469,0,0,1,.412.459v.679a.456.456,0,0,1-.412.459l-1.516.244a.462.462,0,0,0-.383.395c-.029.186-.058.372-.1.552a.468.468,0,0,0,.226.5L26.7,18.7a.466.466,0,0,1,.226.575l-.232.639a.461.461,0,0,1-.546.29l-1.5-.29a.467.467,0,0,0-.5.238q-.131.244-.279.488a.472.472,0,0,0,.041.552l1,1.156a.462.462,0,0,1,.017.616l-.436.523a.458.458,0,0,1-.61.087l-1.318-.79a.464.464,0,0,0-.546.052c-.139.122-.285.244-.43.36a.463.463,0,0,0-.145.528l.546,1.434a.465.465,0,0,1-.192.587l-.592.343a.463.463,0,0,1-.6-.128l-.976-1.2a.426.426,0,0,0-.476-.151c-.2.081-.331.128-.575.209a.462.462,0,0,0-.319.447l.023,1.533a.468.468,0,0,1-.383.488l-.674.116a.469.469,0,0,1-.528-.325l-.5-1.452a.464.464,0,0,0-.453-.314c-.093,0-.192.006-.285.006s-.192,0-.285-.006a.469.469,0,0,0-.453.314l-.5,1.452a.469.469,0,0,1-.528.325l-.674-.116a.468.468,0,0,1-.383-.488l.023-1.533a.462.462,0,0,0-.319-.447c-.244-.081-.406-.145-.557-.2a.4.4,0,0,0-.482.122l-.987,1.214a.463.463,0,0,1-.6.128l-.592-.343a.459.459,0,0,1-.192-.587l.546-1.434a.467.467,0,0,0-.145-.528c-.145-.116-.29-.238-.43-.36a.464.464,0,0,0-.546-.052l-1.318.79a.465.465,0,0,1-.61-.087l-.436-.523a.462.462,0,0,1,.017-.616l1-1.156a.462.462,0,0,0,.041-.552Q6.9,20.4,6.772,20.15a.472.472,0,0,0-.5-.238l-1.5.29a.467.467,0,0,1-.546-.29l-.232-.639a.466.466,0,0,1,.226-.575l1.341-.743a.46.46,0,0,0,.226-.5c-.035-.186-.07-.366-.1-.552a.469.469,0,0,0-.383-.395l-1.516-.244a.469.469,0,0,1-.412-.459v-.679A.478.478,0,0,1,3.8,14.68Zm15.975,6.661a.936.936,0,0,0,1.452.209,8.37,8.37,0,0,0,.017-12.113.932.932,0,0,0-1.452.2l-3.252,5.61a.473.473,0,0,0,0,.465Zm-12.439-3.9a8.371,8.371,0,0,0,10.487,6.068.927.927,0,0,0,.54-1.353l-3.234-5.627a.461.461,0,0,0-.4-.232H8.241A.927.927,0,0,0,7.335,17.438Zm.9-2.77h6.492a.454.454,0,0,0,.4-.232l3.258-5.615a.931.931,0,0,0-.534-1.359A8.381,8.381,0,0,0,7.335,13.524.926.926,0,0,0,8.235,14.668Z" transform="translate(-3.375 -3.535)" fill="#86a6c4"/>
</svg>
