<svg xmlns="http://www.w3.org/2000/svg" width="59.196" height="95.301" viewBox="0 0 59.196 95.301">
  <g id="thunder" transform="translate(-96.985 0)">
    <path id="Path_24065" data-name="Path 24065" d="M119.148,94.8l36.759-63.294a1.991,1.991,0,0,0-1.99-2.973l-24.451,3.323,5.842-30.672A1,1,0,0,0,133.536.4L97.394,48.107a1.991,1.991,0,0,0,1.8,3.183l26.957-2.838-8.837,45.66A1,1,0,0,0,119.148,94.8Z" transform="translate(0 0)" fill="#ffcd06"/>
    <path id="Path_24066" data-name="Path 24066" d="M108.7,44.74a.824.824,0,0,1-.765-1.258L134.954.245a.981.981,0,0,0-1.418.167L97.394,48.12a1.991,1.991,0,0,0,1.8,3.183l26.957-2.838-8.837,45.66a.967.967,0,0,0,.782,1.153l15.144-47.92a3.319,3.319,0,0,0-3.429-4.308Z" transform="translate(0 -0.014)" fill="#f9951c"/>
  </g>
</svg>
