<svg xmlns="http://www.w3.org/2000/svg" width="166.245" height="44.278" viewBox="0 0 166.245 44.278">
  <path id="path0" d="M153.1,24.833a3.821,3.821,0,0,0-3.1,2.6,4.273,4.273,0,0,0,.264,2.745,3.256,3.256,0,0,0,.6.886A3.746,3.746,0,0,0,157,30.047a2.8,2.8,0,0,0,.28-1.479,3.616,3.616,0,0,0-4.186-3.735M54.8,27.516c-.629.073-1.732.265-2.348.408l-.653.152c-.328.076-1.506.46-1.776.58-.09.039-.329.139-.531.22a23.556,23.556,0,0,0-3.43,1.88c-.067.054-.361.274-.653.489a14.658,14.658,0,0,0-5.323,7.294c-.042.157-.113.414-.159.572a16.947,16.947,0,0,0-.4,5.732,19.239,19.239,0,0,0,.425,1.9c.089.315.195.655.235.755s.1.267.144.367c.677,1.773,3.346,5.124,4.081,5.124a.124.124,0,0,1,.108.065,12.931,12.931,0,0,0,3.253,1.561c.2.059.441.137.531.173a2.862,2.862,0,0,0,.408.117c.135.028.392.086.572.129a16.491,16.491,0,0,0,6.083.155c.247-.048.587-.106.756-.131a.721.721,0,0,0,.352-.118.419.419,0,0,1,.281-.073.409.409,0,0,0,.286-.082.274.274,0,0,1,.21-.082.768.768,0,0,0,.3-.075c.078-.041.362-.158.632-.259a17.485,17.485,0,0,0,3.471-1.948c.022-.027.206-.176.408-.331a12.837,12.837,0,0,0,4.367-5.757c.073-.224.163-.482.2-.572a12.9,12.9,0,0,0,.5-2.123,22.117,22.117,0,0,0-.067-4,8.248,8.248,0,0,0-5-6.233,14.305,14.305,0,0,0-8.166-.27c-.157.045-.377.106-.49.135a3.779,3.779,0,0,0-.388.128l-.367.146c-6.379,2.464-8.983,9.806-4.87,13.729a6.325,6.325,0,0,0,5.012,1.9c4.738-.022,7.7-2.825,8.109-7.678.068-.806.039-.914-.133-.49a10.343,10.343,0,0,1-2.529,3.578,6.9,6.9,0,0,1-1.6,1.056.209.209,0,0,0-.162.067,7.735,7.735,0,0,1-1.489.5,7.188,7.188,0,0,1-3.012-.153c-1-.4-2.164-1.46-2.164-1.982a.333.333,0,0,0-.068-.189c-.419-.482-.415-2.76.006-3.793l.165-.408a7.689,7.689,0,0,1,2.723-3.235,9.676,9.676,0,0,1,1.748-.848.643.643,0,0,0,.224-.073,2.916,2.916,0,0,1,.468-.157c4.708-1.2,8.586,1.116,8.9,5.323.457,6.091-4.469,11.048-11.229,11.3-1.883.07-4.843-.507-5.308-1.034a1.6,1.6,0,0,0-.286-.167,8.717,8.717,0,0,1-4.353-5.963c-.048-.247-.125-.645-.173-.884a11.68,11.68,0,0,1,0-2.775c.046-.211.123-.567.171-.792a12.578,12.578,0,0,1,2.058-4.245,4.57,4.57,0,0,0,.3-.376A16.413,16.413,0,0,1,47.61,33.4a3.054,3.054,0,0,0,.327-.249,12.338,12.338,0,0,1,2.327-1.382,16.165,16.165,0,0,1,11.227-.917,11.474,11.474,0,0,1,5.879,3.974,3.894,3.894,0,0,0,.333.449,14.677,14.677,0,0,1,1.1,2.158,12.142,12.142,0,0,1,.73,4.946,11.936,11.936,0,0,1-.3,2.245,16.478,16.478,0,0,1-2.1,5.1c-.073.113-.17.264-.215.336a26.1,26.1,0,0,1-5.137,5.294,1.385,1.385,0,0,0-.212.17c-.09.117-1.886,1.313-2.654,1.767a26.257,26.257,0,0,1-6.614,2.736,18.706,18.706,0,0,1-5.226.592,14.889,14.889,0,0,1-3.226-.195c-.157-.039-.488-.112-.735-.163a17.034,17.034,0,0,1-4.608-1.741c-.227-.135-.535-.315-.683-.4a3.545,3.545,0,0,1-.367-.233c-.053-.044-.428-.331-.833-.639a14.4,14.4,0,0,1-4.45-6.1,18.293,18.293,0,0,1-.853-8.655c.021-.135.017-.19-.009-.122s-.077.2-.114.286a11.594,11.594,0,0,0-.33,1.184c-.045.179-.116.464-.159.633s-.1.453-.131.633-.09.547-.134.817a35.459,35.459,0,0,0-.068,4.981c.138.842.249,1.429.342,1.8a11.246,11.246,0,0,0,.315,1.143c.036.09.148.384.249.654a13.3,13.3,0,0,0,5.865,6.806c.432.257.959.549,1.173.648.562.262,1.133.516,1.367.609.113.045.268.113.346.153a.715.715,0,0,0,.267.072.7.7,0,0,1,.267.074,3.551,3.551,0,0,0,.51.172c.2.055.459.132.571.172a21.4,21.4,0,0,0,2.327.5,28.076,28.076,0,0,0,5.716.075c1.051-.17,2.522-.475,3.144-.652.157-.045.378-.105.49-.135s.277-.082.367-.117.31-.108.49-.162.4-.128.49-.164l.367-.147a24.357,24.357,0,0,0,3.995-2,13.341,13.341,0,0,0,1.313-.886.615.615,0,0,1,.232-.116c.315-.1.111.17-.767,1.009a21.318,21.318,0,0,1-7.386,4.656c-.292.1-.6.211-.694.247s-.329.112-.531.168-.459.129-.571.164-.425.107-.694.161-.563.114-.653.135a21.074,21.074,0,0,1-8.411-.206c-.18-.046-.437-.106-.572-.134a3.09,3.09,0,0,1-.408-.115c-.09-.036-.42-.145-.735-.243a8.4,8.4,0,0,1-1.285-.488,3.6,3.6,0,0,0-.43-.172,19.817,19.817,0,0,1-3.622-2.114,14.182,14.182,0,0,1-5.1-8.073c-.209-1.094-.3-.1-.14,1.531a14.155,14.155,0,0,0,9.02,11.676c.09.034.255.1.367.148a22.805,22.805,0,0,0,11.677,1A28.487,28.487,0,0,0,52.8,68.02a17.1,17.1,0,0,0,1.693-.576.615.615,0,0,1,.226-.08,2.452,2.452,0,0,0,.47-.172l.714-.314c.7-.3,2.285-1.114,2.916-1.489a5.6,5.6,0,0,1,.73-.393.076.076,0,0,0,.069-.081.084.084,0,0,1,.086-.082,24.649,24.649,0,0,0,3.413-2.49,34.8,34.8,0,0,0,4.34-4.532c.155-.2.3-.386.327-.409.125-.112,1.311-1.8,1.4-1.988.054-.119.13-.217.168-.217a.081.081,0,0,0,.069-.089.846.846,0,0,1,.154-.306,26.376,26.376,0,0,0,2.776-6.178c1.145-3.9,1.081-8.692-.159-11.7-.042-.1-.109-.267-.149-.367s-.151-.358-.245-.571a2.448,2.448,0,0,1-.171-.47c0-.045-.028-.082-.062-.082s-.114-.12-.177-.266a14.454,14.454,0,0,0-3.314-4.144c-2.851-2.36-6.231-3.487-10.655-3.553-1.1-.016-2.276,0-2.613.042m71.49,7.071a20.413,20.413,0,0,0-5.308,1.169,15.693,15.693,0,0,0-8.772,8.866c-.1.269-.215.563-.25.653s-.109.329-.165.531-.13.441-.167.531a2.7,2.7,0,0,0-.116.449c-.027.157-.086.469-.131.694a15.549,15.549,0,0,0-.274,3.552,16.248,16.248,0,0,0,.272,3.634,13.684,13.684,0,0,0,.83,2.8,2.2,2.2,0,0,1,.158.417,18.584,18.584,0,0,0,1.549,2.772c.069.076.232.286.364.466a15,15,0,0,0,5.478,4.127,14.386,14.386,0,0,0,1.837.6,13.206,13.206,0,0,0,10.371-1.288,7.467,7.467,0,0,0,3.254-8.259,7.227,7.227,0,0,0-.759-2.014c-.395-.819-.617-1.058-.617-.664a1.865,1.865,0,0,1-.08.467,13.406,13.406,0,0,1-.776,2.129,8.152,8.152,0,0,1-1.9,2.62c-.214.172-.407.335-.43.36a7.453,7.453,0,0,1-1.184.693,7.7,7.7,0,0,1-1.654.528,10.939,10.939,0,0,1-3.409-.034,8.283,8.283,0,0,1-5.75-4.644,3.443,3.443,0,0,1-.251-.664.205.205,0,0,0-.072-.16.452.452,0,0,1-.117-.229c-.025-.1-.084-.332-.132-.512a9.512,9.512,0,0,1-.365-3.266,9.484,9.484,0,0,1,.354-3.225c.042-.157.1-.378.129-.49a3.606,3.606,0,0,1,.139-.408c.047-.112.114-.278.147-.367a9.211,9.211,0,0,1,5.358-5.217c.54-.185.734-.242,1.622-.472a20.163,20.163,0,0,1,4.246,0,9.779,9.779,0,0,1,6.649,4.692l.32.565a15.081,15.081,0,0,1,.9,2.47c.546,2.152.682,4.065.66,9.274-.018,4.325.026,4.693.709,5.9.9,1.584,3.782,2.955,5.378,2.555l.225-.056-.036-8.06c-.024-5.324-.067-8.212-.125-8.509-.049-.247-.132-.761-.185-1.143a16.211,16.211,0,0,0-.741-3.058.384.384,0,0,1-.072-.225.761.761,0,0,0-.072-.29c-.04-.078-.108-.234-.152-.346a13.287,13.287,0,0,0-1.1-2.226,17.271,17.271,0,0,0-3.567-4.171,18.071,18.071,0,0,0-3.646-2.136l-.49-.209a21.114,21.114,0,0,0-8.084-1.17M150.444,48.06c.027,12.718.044,13.625.257,14.4a4.98,4.98,0,0,0,3.489,3.437,9.056,9.056,0,0,0,2.457.3c.2-.075.212-25.508.017-26.719-.476-2.953-2.257-4.527-5.289-4.673l-.96-.047.029,13.3m16.4-13.118a4.709,4.709,0,0,0-1.8.718.368.368,0,0,1-.171.1,4.212,4.212,0,0,0-1.048,1.129,5.032,5.032,0,0,0-.776,2.014c-.132.609-.188,21.742-.06,22.619a5.024,5.024,0,0,0,3.523,4.333,7.124,7.124,0,0,0,2.313.329l.2-.051V54.756c0-9.887.016-11.393.12-11.479.147-.122.292.024,1.128,1.137.323.429.608.8.634.821s.521.665,1.1,1.429,1.194,1.572,1.368,1.8.522.684.773,1.021.481.631.509.653a2.837,2.837,0,0,1,.248.327,3.01,3.01,0,0,0,.247.326c.052.042.437.542,2.039,2.654.511.674.952,1.243.979,1.266a3.048,3.048,0,0,1,.246.327,2.933,2.933,0,0,0,.247.327c.028.022.268.334.535.692s.528.707.582.776c.493.623,1.008,1.291,1.7,2.205.449.595.917,1.2,1.04,1.338a1.4,1.4,0,0,1,.225.3,1.224,1.224,0,0,0,.207.286c.113.13.526.66.918,1.176,2.647,3.49,4.6,4.555,7.2,3.926,1.49-.359,3.185-1.9,3.185-2.894a.218.218,0,0,1,.073-.17c.351-.217.411-2.022.411-12.363,0-11.624.006-11.524-.738-13.021a4.841,4.841,0,0,0-2.232-2.124c-1.05-.513-3.054-.828-3.18-.5-.027.071-.049,5.234-.049,11.473V57.81l-.184,0c-.129,0-.306-.164-.592-.54-.224-.295-.446-.579-.492-.63s-.173-.222-.282-.379a3.369,3.369,0,0,0-.246-.327c-.053-.045-1.014-1.293-2.01-2.613-.618-.818-1.217-1.6-1.461-1.894-.062-.076-.426-.554-.808-1.062s-1.092-1.439-1.576-2.071-.991-1.293-1.125-1.47-.265-.34-.29-.363a3.839,3.839,0,0,1-.245-.327c-.109-.157-.244-.341-.3-.408s-.4-.509-.756-.98-.687-.9-.726-.944-.431-.562-.872-1.144c-1.086-1.432-1.3-1.7-1.35-1.751-.025-.023-.16-.206-.3-.409a5.966,5.966,0,0,0-.405-.531,4.755,4.755,0,0,1-.35-.449c-.108-.157-.3-.414-.429-.571s-.259-.323-.291-.368c-2.022-2.84-4.175-4.024-6.615-3.637m-87.39.942a4.415,4.415,0,0,0,2.1,4.031,8.035,8.035,0,0,0,1.786.672c.145.043,3.678.075,8.341.075,9.989,0,9.268-.171,7,1.658-.714.575-1.445,1.168-1.625,1.318s-.731.6-1.225.993-.939.758-.988.8-.212.176-.362.289c-.328.246-.758.592-.815.656-.023.025-.684.556-1.47,1.18s-1.447,1.155-1.47,1.181c-.064.075-1.294,1.072-1.837,1.488-.269.207-.568.444-.663.528s-.293.244-.441.356-.309.243-.358.29c-.1.1-.824.682-1.307,1.057-.173.135-.356.282-.406.328s-.256.21-.459.366-.386.3-.408.327-.206.172-.408.327-.386.3-.409.326-.335.275-.694.556a22.062,22.062,0,0,0-3.552,3.285,4.462,4.462,0,0,1-.3.392,5.371,5.371,0,0,0-.716,3.965c.538,1.775,1.608,2.642,4,3.243.717.18,25.586.2,25.655.024a7.19,7.19,0,0,0-.231-1.788,4.864,4.864,0,0,0-1.169-2.11,5.029,5.029,0,0,0-1.3-.871.222.222,0,0,1-.172-.081.332.332,0,0,0-.245-.082.335.335,0,0,1-.24-.073c-.193-.312-2.73-.41-10.632-.413-8.953,0-8.337.1-6.86-1.115.893-.732.894-.733,1.359-1.094.2-.157.386-.305.409-.33s.536-.442,1.143-.927,1.176-.943,1.265-1.018,1.027-.833,2.082-1.684,1.993-1.61,2.082-1.685.843-.68,1.674-1.344,1.529-1.229,1.552-1.256.224-.193.449-.37.54-.433.7-.569c.316-.266.41-.342.968-.779.2-.156.457-.364.572-.46s.667-.549,1.229-1.006c3.142-2.556,3.966-3.384,4.611-4.632a4.742,4.742,0,0,0,.032-4.074,4.364,4.364,0,0,0-2.642-2.157.693.693,0,0,1-.267-.074c-.716-.376-2.051-.415-14.032-.415h-11.3v.693" transform="translate(-28.505 -24.809)" fill="#707273" fill-rule="evenodd"/>
</svg>
