<svg id="_2504934335792" xmlns="http://www.w3.org/2000/svg" width="196.865" height="145.514" viewBox="0 0 196.865 145.514">
  <path id="Path_1330" data-name="Path 1330" d="M585.128,123.776l-1.352-.344c-1.411-.016-7.4.792-12.952.683a74.292,74.292,0,0,1-13.669-1.559,58.472,58.472,0,0,1-21.763-9.207c-11.565-7.978-20.732-23.45-13.953-43.414C535.239,29.294,597.886-.711,641.5,6.9c49.175,8.578,44.959,51.951,15.021,79.219a121.15,121.15,0,0,1-17.3,13.629c-2.2,1.386-7.525,4.9-9.828,5.613L660.46,30.882c-14.213,2.031-24.422,8.148-30,16.6-3.592,5.442-11.217,24.956-14.268,32.284-.823,1.976-26.836,63.581-27.385,65.768,33.846-4.262,34.069-31.429,38.563-33.863,2.071-1.122,4.994-2.23,7.215-3.318a161.739,161.739,0,0,0,25.937-15.516A123.266,123.266,0,0,0,682.117,72.97c5.592-6.353,12.025-16.267,14.421-27.012a34.125,34.125,0,0,0-.879-18.447c-5.645-15.324-21.387-22.61-36.606-25.6C646.5-.548,632.92-.408,620.105,1.166c-23.934,2.94-44.093,10.776-62.691,20.16-17.7,8.933-36.212,24.076-45.671,37.583-14.314,20.438-16.817,42.375,3.73,56.687,17.256,12.019,46.712,12.8,67.9,9.145,1.647-.284,1.209.083,1.757-.962Z" transform="translate(-500.531 -0.018)" fill="#fff" fill-rule="evenodd"/>
  <path id="Path_1331" data-name="Path 1331" d="M1075.2,530.261c19.842-2.856,27.9-10.8,35.431-27.776.8-1.8,17.869-43.2,18.165-44.844-8.593,1.577-16.7,4.927-22.147,9.262-6.038,4.8-9.5,9.847-13.1,18.509l-13.779,33.452c-1.279,3.127-3.893,8.483-4.574,11.4Z" transform="translate(-1036.146 -426.54)" fill="#fff" fill-rule="evenodd"/>
  <path id="Path_1332" data-name="Path 1332" d="M1566.77,527.731c9.183-1.178,17.218-4.345,22.673-8.912,6.26-5.24,8.646-9.494,12.744-18.865,3.162-7.232,6.112-14.823,9.047-22.215l9.182-22.549a50.42,50.42,0,0,0-22.178,9.215c-5.61,4.283-9.8,10.178-13.12,18.487C1583.318,487.393,1567.577,524.689,1566.77,527.731Z" transform="translate(-1494.309 -424.257)" fill="#fff" fill-rule="evenodd"/>
</svg>
